<svg xmlns="http://www.w3.org/2000/svg" width="20" height="17" viewBox="0 0 20 17">
    <path fill="#9B9B9B" fill-rule="evenodd" d="M20 1.924a8.212 8.212 0 0 1-2.357.646A4.115 4.115 0 0 0 19.448.3a8.229 8.229 0 0 1-2.606.996A4.103 4.103 0 0 0 9.85 5.039 11.65 11.65 0 0 1 1.392.75a4.102 4.102 0 0 0 1.27 5.478 4.082 4.082 0 0 1-1.858-.513v.051a4.105 4.105 0 0 0 3.291 4.024 4.11 4.11 0 0 1-1.853.07 4.107 4.107 0 0 0 3.833 2.85 8.233 8.233 0 0 1-5.096 1.756c-.331 0-.658-.02-.979-.057a11.617 11.617 0 0 0 6.29 1.843c7.548 0 11.674-6.252 11.674-11.674 0-.178-.003-.355-.011-.531A8.322 8.322 0 0 0 20 1.924"/>
</svg>
