<svg xmlns="http://www.w3.org/2000/svg" width="20" height="20" viewBox="0 0 20 20">
    <path fill="#9B9B9B" fill-rule="evenodd" d="M17.5 18.125h-15a.625.625 0 0 1-.625-.625V8.125h2.5c-.326.469-.436 1.343-.436 1.898 0 3.347 2.73 6.07 6.084 6.07 3.355 0 6.084-2.723 6.084-6.07 0-.555-.078-1.416-.482-1.898h2.5V17.5c0 .345-.28.625-.625.625M10.023 6.186a3.842 3.842 0 0 1 3.846 3.837 3.842 3.842 0 0 1-3.846 3.838 3.842 3.842 0 0 1-3.845-3.838 3.842 3.842 0 0 1 3.845-3.837M15 2.5h1.875c.345 0 .625.28.625.625V5c0 .345-.28.625-.625.625H15A.625.625 0 0 1 14.375 5V3.125c0-.345.28-.625.625-.625M17.623 0H2.377A2.375 2.375 0 0 0 0 2.372v15.256A2.375 2.375 0 0 0 2.377 20h15.246A2.375 2.375 0 0 0 20 17.628V2.372A2.375 2.375 0 0 0 17.623 0"/>
</svg>
