<svg xmlns="http://www.w3.org/2000/svg" width="20" height="19" viewBox="0 0 20 19">
    <g fill="#9B9B9B" fill-rule="evenodd">
        <path d="M6.614 7.86c.665-.024 1.22-.255 1.663-.692a2.48 2.48 0 0 0 .413-.953c.036-.326.055-.6.055-.823 0-.962-.255-1.932-.765-2.91a3.251 3.251 0 0 0-.944-1.144 2.481 2.481 0 0 0-1.374-.44 2.256 2.256 0 0 0-1.709.798 2.928 2.928 0 0 0-.55 1.812c0 .882.268 1.8.803 2.754.259.445.593.823 1.003 1.133.41.31.878.465 1.405.465zm3.524 7.15c0-.62-.21-1.159-.627-1.618-.444-.437-1.135-.972-2.077-1.607a5.948 5.948 0 0 0-.568-.024c-.129-.016-.459 0-.99.047-.523.072-1.058.187-1.606.345-.128.048-.31.12-.543.215a3.34 3.34 0 0 0-.712.44 2.58 2.58 0 0 0-.591.738c-.186.31-.278.682-.278 1.119 0 .857.402 1.562 1.207 2.118.764.555 1.811.841 3.139.857 1.192-.016 2.101-.27 2.728-.762.612-.484.918-1.107.918-1.868zM9.162.968c.158.096.337.235.535.417a4.606 4.606 0 0 1 1.024 1.63c.111.357.167.773.167 1.249-.015.873-.214 1.57-.599 2.094a6.656 6.656 0 0 1-.598.702c-.234.215-.482.433-.746.655-.15.15-.29.32-.418.511-.15.199-.226.429-.226.69a.89.89 0 0 0 .232.631c.13.159.259.298.383.416l.857.679c.533.42 1 .884 1.402 1.391.379.516.575 1.19.591 2.024 0 1.18-.541 2.228-1.622 3.14-1.122.944-2.741 1.432-4.856 1.464-1.77-.016-3.093-.38-3.966-1.093C.442 16.903 0 16.108 0 15.181c0-.451.144-.954.43-1.508.279-.555.782-1.041 1.511-1.46a8.065 8.065 0 0 1 2.58-.903 20.276 20.276 0 0 1 2.223-.214 5.167 5.167 0 0 1-.487-.742c-.167-.255-.25-.562-.25-.921 0-.215.032-.395.095-.538.056-.152.107-.292.155-.418a7.523 7.523 0 0 1-.812.047C4.099 8.508 3.074 8.1 2.368 7.298c-.739-.745-1.107-1.613-1.107-2.605 0-1.197.523-2.284 1.569-3.26C3.549.863 4.295.49 5.07.315A11.22 11.22 0 0 1 7.226.09h5.056l-1.562.88H9.162zM20 8.75h-2.5v-2.5h-1.25v2.5h-2.5V10h2.5v2.5h1.25V10H20z"/>
    </g>
</svg>
