<svg xmlns="http://www.w3.org/2000/svg" width="229" height="20" viewBox="0 0 229 20">
    <g fill="#9B9B9B" fill-rule="evenodd">
        <path d="M72 3.924a8.212 8.212 0 0 1-2.357.646 4.115 4.115 0 0 0 1.805-2.27 8.229 8.229 0 0 1-2.606.996 4.103 4.103 0 0 0-6.992 3.743 11.65 11.65 0 0 1-8.457-4.288 4.102 4.102 0 0 0 1.27 5.478 4.082 4.082 0 0 1-1.86-.513v.051a4.105 4.105 0 0 0 3.292 4.024 4.11 4.11 0 0 1-1.853.07 4.107 4.107 0 0 0 3.833 2.85 8.233 8.233 0 0 1-5.096 1.756c-.331 0-.658-.02-.979-.057a11.617 11.617 0 0 0 6.29 1.843c7.548 0 11.674-6.252 11.674-11.674 0-.178-.003-.355-.011-.531A8.322 8.322 0 0 0 72 3.924M19.167 0H.834A.833.833 0 0 0 0 .833v18.334c0 .46.373.833.834.833h9.791v-7.5h-2.5V9.375h2.5v-2.5c0-2.583 1.636-3.854 3.94-3.854 1.104 0 2.053.082 2.329.118v2.7l-1.598.001c-1.253 0-1.546.596-1.546 1.47v2.065h3.125L16.25 12.5h-2.5l.05 7.5h5.367c.46 0 .833-.373.833-.833V.833A.833.833 0 0 0 19.167 0M110.614 8.86c.665-.024 1.22-.255 1.663-.692a2.48 2.48 0 0 0 .413-.953c.036-.326.055-.6.055-.823 0-.962-.255-1.932-.765-2.91a3.251 3.251 0 0 0-.944-1.144 2.481 2.481 0 0 0-1.374-.44 2.256 2.256 0 0 0-1.709.798 2.928 2.928 0 0 0-.55 1.812c0 .882.268 1.8.803 2.754.259.445.593.823 1.003 1.133.41.31.878.465 1.405.465zm3.524 7.15c0-.62-.21-1.159-.627-1.619-.444-.436-1.135-.971-2.077-1.606a5.948 5.948 0 0 0-.568-.024c-.129-.016-.459 0-.99.047-.523.072-1.058.187-1.605.345-.13.048-.31.12-.544.215a3.34 3.34 0 0 0-.712.44 2.58 2.58 0 0 0-.591.738c-.186.31-.279.682-.279 1.119 0 .857.403 1.562 1.208 2.118.764.555 1.811.841 3.139.857 1.192-.016 2.101-.27 2.728-.762.612-.484.918-1.107.918-1.868zm-.976-14.042c.159.096.337.235.535.417a4.606 4.606 0 0 1 1.024 1.63c.111.357.167.773.167 1.249-.015.873-.214 1.57-.599 2.094a6.656 6.656 0 0 1-.598.702c-.234.215-.482.433-.746.655-.15.15-.29.32-.418.511-.15.199-.226.429-.226.69a.89.89 0 0 0 .232.631c.13.159.259.298.383.416l.857.679c.533.42 1 .884 1.402 1.391.379.516.576 1.19.591 2.024 0 1.18-.541 2.228-1.622 3.14-1.122.944-2.741 1.432-4.856 1.464-1.77-.016-3.092-.38-3.966-1.093-.88-.665-1.321-1.46-1.321-2.387 0-.451.143-.954.43-1.508.278-.555.781-1.041 1.51-1.46a8.065 8.065 0 0 1 2.58-.903 20.276 20.276 0 0 1 2.223-.214 5.167 5.167 0 0 1-.487-.742c-.166-.255-.25-.562-.25-.921 0-.215.032-.395.095-.538.056-.152.107-.292.155-.418a7.523 7.523 0 0 1-.812.047c-1.346-.016-2.371-.424-3.077-1.226-.739-.745-1.107-1.613-1.107-2.605 0-1.197.523-2.284 1.569-3.26.719-.57 1.465-.943 2.24-1.118a11.22 11.22 0 0 1 2.156-.226h5.056l-1.561.88h-1.56zM124 9.75h-2.5v-2.5h-1.25v2.5h-2.5V11h2.5v2.5h1.25V11h2.5zM226.5 18.125h-15a.625.625 0 0 1-.625-.625V8.125h2.5c-.326.469-.436 1.343-.436 1.898 0 3.347 2.73 6.07 6.084 6.07 3.355 0 6.084-2.723 6.084-6.07 0-.555-.078-1.416-.482-1.898h2.5V17.5c0 .345-.28.625-.625.625m-7.477-11.939a3.842 3.842 0 0 1 3.846 3.837 3.842 3.842 0 0 1-3.846 3.838 3.842 3.842 0 0 1-3.845-3.838 3.842 3.842 0 0 1 3.845-3.837M224 2.5h1.875c.345 0 .625.28.625.625V5c0 .345-.28.625-.625.625H224a.625.625 0 0 1-.625-.625V3.125c0-.345.28-.625.625-.625m2.623-2.5h-15.245A2.375 2.375 0 0 0 209 2.372v15.256A2.375 2.375 0 0 0 211.377 20h15.245A2.375 2.375 0 0 0 229 17.628V2.372A2.375 2.375 0 0 0 226.623 0M174.043 17.042h-2.966V12.4c0-1.107-.019-2.531-1.541-2.531-1.543 0-1.78 1.206-1.78 2.451v4.72h-2.962V7.498h2.843v1.306h.041c.396-.751 1.363-1.542 2.806-1.542 3.004 0 3.56 1.976 3.56 4.546v5.235zM161.45 6.194a1.72 1.72 0 1 1-.003-3.44 1.72 1.72 0 0 1 .003 3.44zm1.484 10.848h-2.97V7.497h2.97v9.545zM176.167 0h-18.333a.833.833 0 0 0-.834.833v18.333c0 .46.373.834.834.834h18.333c.46 0 .833-.373.833-.834V.833a.833.833 0 0 0-.833-.833z"/>
    </g>
</svg>
