<svg xmlns="http://www.w3.org/2000/svg" width="42" height="42" viewBox="0 0 42 42">
    <g fill="none" fill-rule="evenodd">
        <path d="M-4-4h50v50H-4z"/>
        <path fill="#FFF" d="M16.833 30.375L29.333 21l-12.5-9.375v18.75zM21 .167C9.5.167.167 9.5.167 21 .167 32.5 9.5 41.833 21 41.833c11.5 0 20.833-9.333 20.833-20.833C41.833 9.5 32.5.167 21 .167zm0 37.5c-9.188 0-16.667-7.48-16.667-16.667 0-9.188 7.48-16.667 16.667-16.667 9.188 0 16.667 7.48 16.667 16.667 0 9.188-7.48 16.667-16.667 16.667z"/>
    </g>
</svg>
